<svg xmlns="http://www.w3.org/2000/svg" width="195" height="71" viewBox="0 0 195 71"><defs><style>.a,.e,.h,.j{fill:#fff;}.b{fill:#302f2f;opacity:0.92;}.c,.e,.f,.h,.j{isolation:isolate;}.d{fill:#006837;}.e,.f{opacity:0.25;}.e,.h,.j{mix-blend-mode:overlay;}.f{mix-blend-mode:multiply;}.g{fill:#d9e021;}.i{fill:#8cc63f;}.j{opacity:0.5;}.k{fill:#39b54a;}.l{fill:#009245;}</style></defs><g transform="translate(-78 -20)"><rect class="a" width="195" height="71" rx="10" transform="translate(78 20)"/><g transform="translate(20 7)"><path class="b" d="M11.16-6.09v1.32a4.756,4.756,0,0,1-.375,1.875A5.187,5.187,0,0,1,9.75-1.32,4.99,4.99,0,0,1,8.2-.225,4.523,4.523,0,0,1,6.3.18,6.851,6.851,0,0,1,4.53-.06,4.187,4.187,0,0,1,2.91-.9,4.645,4.645,0,0,1,1.725-2.445,5.47,5.47,0,0,1,1.26-4.86V-16.62a5.2,5.2,0,0,1,.36-1.95,4.589,4.589,0,0,1,1.02-1.56,4.742,4.742,0,0,1,1.575-1.035A5.292,5.292,0,0,1,6.24-21.54a4.64,4.64,0,0,1,3.51,1.41A5.009,5.009,0,0,1,10.785-18.5a5.522,5.522,0,0,1,.375,2.055v1.2H8.1v-1.02a2.477,2.477,0,0,0-.51-1.56,1.652,1.652,0,0,0-1.38-.66,1.554,1.554,0,0,0-1.515.7A3.778,3.778,0,0,0,4.32-15.99V-5.07a2.828,2.828,0,0,0,.405,1.56,1.6,1.6,0,0,0,1.455.63,2.222,2.222,0,0,0,.645-.105A1.924,1.924,0,0,0,7.47-3.33a1.831,1.831,0,0,0,.45-.66A2.674,2.674,0,0,0,8.1-5.04V-6.09Zm5.31-10.23a5.457,5.457,0,0,1,.45-2.28,4.818,4.818,0,0,1,1.2-1.65,5.073,5.073,0,0,1,1.635-.96,5.4,5.4,0,0,1,1.845-.33,5.4,5.4,0,0,1,1.845.33,5.438,5.438,0,0,1,1.665.96,5.023,5.023,0,0,1,1.17,1.65,5.457,5.457,0,0,1,.45,2.28V-5.04a5.408,5.408,0,0,1-.45,2.31,4.766,4.766,0,0,1-1.17,1.59,5.144,5.144,0,0,1-1.665.99A5.4,5.4,0,0,1,21.6.18a5.4,5.4,0,0,1-1.845-.33,4.814,4.814,0,0,1-1.635-.99,4.58,4.58,0,0,1-1.2-1.59,5.408,5.408,0,0,1-.45-2.31ZM19.53-5.04A2.034,2.034,0,0,0,20.145-3.4,2.169,2.169,0,0,0,21.6-2.88,2.169,2.169,0,0,0,23.055-3.4,2.034,2.034,0,0,0,23.67-5.04V-16.32a2.034,2.034,0,0,0-.615-1.635A2.169,2.169,0,0,0,21.6-18.48a2.169,2.169,0,0,0-1.455.525,2.034,2.034,0,0,0-.615,1.635ZM32.31,0V-21.36h2.94L39.87-8.49h.06V-21.36h3.06V0H40.11L35.43-12.84h-.06V0ZM50.76,0V-18.48H47.22v-2.88H57.36v2.88H53.82V0ZM61.17-16.32a5.457,5.457,0,0,1,.45-2.28,4.818,4.818,0,0,1,1.2-1.65,5.073,5.073,0,0,1,1.635-.96,5.4,5.4,0,0,1,1.845-.33,5.4,5.4,0,0,1,1.845.33,5.438,5.438,0,0,1,1.665.96,5.023,5.023,0,0,1,1.17,1.65,5.457,5.457,0,0,1,.45,2.28V-5.04a5.408,5.408,0,0,1-.45,2.31,4.766,4.766,0,0,1-1.17,1.59,5.144,5.144,0,0,1-1.665.99A5.4,5.4,0,0,1,66.3.18a5.4,5.4,0,0,1-1.845-.33,4.814,4.814,0,0,1-1.635-.99,4.58,4.58,0,0,1-1.2-1.59,5.408,5.408,0,0,1-.45-2.31ZM64.23-5.04A2.034,2.034,0,0,0,64.845-3.4,2.169,2.169,0,0,0,66.3-2.88,2.169,2.169,0,0,0,67.755-3.4,2.034,2.034,0,0,0,68.37-5.04V-16.32a2.034,2.034,0,0,0-.615-1.635A2.169,2.169,0,0,0,66.3-18.48a2.169,2.169,0,0,0-1.455.525,2.034,2.034,0,0,0-.615,1.635Zm22.8-10.17H83.97v-.69a3.267,3.267,0,0,0-.495-1.815,1.831,1.831,0,0,0-1.665-.765,1.925,1.925,0,0,0-1.02.24,2.012,2.012,0,0,0-.63.6,2.538,2.538,0,0,0-.33.885,5.778,5.778,0,0,0-.09,1.035,10.144,10.144,0,0,0,.045,1.05,1.993,1.993,0,0,0,.225.75,1.668,1.668,0,0,0,.525.57,4.823,4.823,0,0,0,.945.48l2.34.93a5.8,5.8,0,0,1,1.65.915,3.955,3.955,0,0,1,.99,1.215,5.679,5.679,0,0,1,.45,1.635,16.181,16.181,0,0,1,.12,2.085,10.994,10.994,0,0,1-.27,2.5,5.277,5.277,0,0,1-.87,1.965A4.318,4.318,0,0,1,84.24-.3a5.82,5.82,0,0,1-2.49.48,5.447,5.447,0,0,1-2.07-.39,4.923,4.923,0,0,1-1.65-1.08,5.256,5.256,0,0,1-1.095-1.6A4.873,4.873,0,0,1,76.53-4.89V-6.03h3.06v.96a2.5,2.5,0,0,0,.495,1.515,1.928,1.928,0,0,0,1.665.675,2.685,2.685,0,0,0,1.215-.225,1.615,1.615,0,0,0,.675-.645,2.369,2.369,0,0,0,.285-1.005q.045-.585.045-1.305a12.931,12.931,0,0,0-.06-1.38,2.375,2.375,0,0,0-.24-.87,1.687,1.687,0,0,0-.555-.54A7.113,7.113,0,0,0,82.2-9.3l-2.19-.9a4.85,4.85,0,0,1-2.655-2.145,7.379,7.379,0,0,1-.675-3.345,7.76,7.76,0,0,1,.33-2.28A5.186,5.186,0,0,1,78-19.83a4.537,4.537,0,0,1,1.605-1.245,5.357,5.357,0,0,1,2.325-.465,5.077,5.077,0,0,1,2.085.42,5.371,5.371,0,0,1,1.635,1.11,4.635,4.635,0,0,1,1.38,3.3Zm5.1-1.11a5.458,5.458,0,0,1,.45-2.28,4.818,4.818,0,0,1,1.2-1.65,5.073,5.073,0,0,1,1.635-.96,5.4,5.4,0,0,1,1.845-.33,5.4,5.4,0,0,1,1.845.33,5.438,5.438,0,0,1,1.665.96,5.023,5.023,0,0,1,1.17,1.65,5.458,5.458,0,0,1,.45,2.28V-5.04a5.408,5.408,0,0,1-.45,2.31,4.766,4.766,0,0,1-1.17,1.59,5.144,5.144,0,0,1-1.665.99A5.4,5.4,0,0,1,97.26.18a5.4,5.4,0,0,1-1.845-.33,4.814,4.814,0,0,1-1.635-.99,4.58,4.58,0,0,1-1.2-1.59,5.408,5.408,0,0,1-.45-2.31ZM95.19-5.04A2.034,2.034,0,0,0,95.805-3.4a2.169,2.169,0,0,0,1.455.525A2.169,2.169,0,0,0,98.715-3.4,2.034,2.034,0,0,0,99.33-5.04V-16.32a2.034,2.034,0,0,0-.615-1.635,2.169,2.169,0,0,0-1.455-.525,2.169,2.169,0,0,0-1.455.525,2.034,2.034,0,0,0-.615,1.635ZM2.76,20V5.216H-.072v-2.3H8.04v2.3H5.208V20ZM13.968,5.216v5.328H15.36a2.463,2.463,0,0,0,1.032-.18,1.4,1.4,0,0,0,.6-.516,2.346,2.346,0,0,0,.264-.828,7.962,7.962,0,0,0,.072-1.14,7.962,7.962,0,0,0-.072-1.14,2.281,2.281,0,0,0-.288-.852,1.947,1.947,0,0,0-1.728-.672ZM11.52,20V2.912h3.936q4.32,0,4.32,5.016a6.321,6.321,0,0,1-.468,2.568,3.629,3.629,0,0,1-1.644,1.7L20.3,20H17.712l-2.28-7.3H13.968V20Zm17.568-5.976-1.2-6.192H27.84l-1.2,6.192ZM23.04,20,26.856,2.912H28.9L32.712,20H30.264l-.72-3.672H26.208L25.488,20Zm13.272,0V2.912h3.624a4.208,4.208,0,0,1,3.2,1.152,4.56,4.56,0,0,1,1.092,3.264V15.32a4.765,4.765,0,0,1-1.164,3.54A4.589,4.589,0,0,1,39.72,20ZM38.76,5.216V17.7h1.128a1.816,1.816,0,0,0,1.464-.516,2.5,2.5,0,0,0,.432-1.62V7.328a2.586,2.586,0,0,0-.408-1.56,1.742,1.742,0,0,0-1.488-.552ZM48.936,20V2.912h7.3v2.3H51.384v5.016h4.224v2.3H51.384v5.016h4.848V20ZM62.664,5.216v5.328h1.392a2.463,2.463,0,0,0,1.032-.18,1.4,1.4,0,0,0,.6-.516,2.346,2.346,0,0,0,.264-.828,7.961,7.961,0,0,0,.072-1.14,7.961,7.961,0,0,0-.072-1.14,2.281,2.281,0,0,0-.288-.852,1.947,1.947,0,0,0-1.728-.672ZM60.216,20V2.912h3.936q4.32,0,4.32,5.016A6.321,6.321,0,0,1,68,10.5a3.629,3.629,0,0,1-1.644,1.7L69,20H66.408l-2.28-7.3H62.664V20ZM80.76,7.832H78.312V7.28a2.614,2.614,0,0,0-.4-1.452,1.465,1.465,0,0,0-1.332-.612,1.54,1.54,0,0,0-.816.192,1.609,1.609,0,0,0-.5.48A2.03,2.03,0,0,0,75,6.6a4.623,4.623,0,0,0-.072.828,8.114,8.114,0,0,0,.036.84,1.6,1.6,0,0,0,.18.6,1.335,1.335,0,0,0,.42.456,3.858,3.858,0,0,0,.756.384l1.872.744a4.641,4.641,0,0,1,1.32.732,3.164,3.164,0,0,1,.792.972,4.543,4.543,0,0,1,.36,1.308,12.943,12.943,0,0,1,.1,1.668,8.8,8.8,0,0,1-.216,2,4.222,4.222,0,0,1-.7,1.572,3.455,3.455,0,0,1-1.32,1.056,4.656,4.656,0,0,1-1.992.384,4.358,4.358,0,0,1-1.656-.312,3.939,3.939,0,0,1-1.32-.864,4.2,4.2,0,0,1-.876-1.284,3.9,3.9,0,0,1-.324-1.6v-.912h2.448v.768a2,2,0,0,0,.4,1.212,1.543,1.543,0,0,0,1.332.54,2.148,2.148,0,0,0,.972-.18,1.292,1.292,0,0,0,.54-.516,1.9,1.9,0,0,0,.228-.8q.036-.468.036-1.044a10.343,10.343,0,0,0-.048-1.1,1.9,1.9,0,0,0-.192-.7,1.349,1.349,0,0,0-.444-.432,5.69,5.69,0,0,0-.732-.36l-1.752-.72a3.88,3.88,0,0,1-2.124-1.716,5.9,5.9,0,0,1-.54-2.676,6.208,6.208,0,0,1,.264-1.824,4.149,4.149,0,0,1,.792-1.488,3.63,3.63,0,0,1,1.284-1,4.286,4.286,0,0,1,1.86-.372,4.061,4.061,0,0,1,1.668.336,4.3,4.3,0,0,1,1.308.888,3.708,3.708,0,0,1,1.1,2.64Z" transform="translate(139 50)"/><g class="c" transform="translate(68 26)"><g transform="translate(25.606 37.808)"><path class="d" d="M84.263,118.263a3.151,3.151,0,1,1-5.876-1.577,2.912,2.912,0,0,1,.5-.654,3.148,3.148,0,0,1,4.454,0,2.912,2.912,0,0,1,.5.654,3.141,3.141,0,0,1,.427,1.577Z" transform="translate(-77.96 -115.11)"/><path class="e" d="M79.26,126.275a2.913,2.913,0,0,1,.5-.654,3.15,3.15,0,0,1,4.457,0,2.912,2.912,0,0,1,.5.654,2.912,2.912,0,0,1-.5.654,3.15,3.15,0,0,1-4.457,0A2.913,2.913,0,0,1,79.26,126.275Z" transform="translate(-78.833 -121.548)"/><path class="f" d="M84.709,116.687H79.26a2.912,2.912,0,0,1,.5-.654,3.148,3.148,0,0,1,4.454,0,2.912,2.912,0,0,1,.5.654Z" transform="translate(-78.833 -115.11)"/><g transform="translate(18.035)"><path class="d" d="M139.173,118.263a3.151,3.151,0,1,1-5.876-1.577,2.912,2.912,0,0,1,.5-.654,3.148,3.148,0,0,1,4.454,0,2.912,2.912,0,0,1,.5.654,3.108,3.108,0,0,1,.427,1.577Z" transform="translate(-132.87 -115.11)"/><path class="e" d="M134.18,126.275a2.913,2.913,0,0,1,.5-.654,3.15,3.15,0,0,1,4.457,0,2.911,2.911,0,0,1,.5.654,3.013,3.013,0,0,1-.5.654,3.15,3.15,0,0,1-4.457,0,2.913,2.913,0,0,1-.5-.654Z" transform="translate(-133.75 -121.548)"/><path class="f" d="M139.629,116.687H134.18a2.912,2.912,0,0,1,.5-.654,3.148,3.148,0,0,1,4.454,0,2.913,2.913,0,0,1,.5.654Z" transform="translate(-133.75 -115.11)"/></g></g><g transform="translate(9.239 1.869)"><path class="d" d="M37.359,10.124,35.822,11.7l-1.537,1.577-4.332,4.434a6.278,6.278,0,0,1-1.823-4.434L29.667,11.7,31.2,10.124,35.537,5.69a6.278,6.278,0,0,1,1.823,4.434Z" transform="translate(-28.13 -5.69)"/><path class="f" d="M40.5,19.19l-1.54,1.573H32.8l1.537-1.573Z" transform="translate(-31.266 -14.756)"/><g transform="translate(10.067 17.792)"><path class="d" d="M100.322,65.4,93.4,66.981l-6.924,1.577L62.094,74.1h0a6.3,6.3,0,0,1-3.311-5.548l13.847-3.15L97.012,59.86a6.311,6.311,0,0,1,3.311,5.548Z" transform="translate(-58.78 -59.86)"/><path class="f" d="M114.479,76.74l-6.927,1.577H79.86l6.924-1.577Z" transform="translate(-72.936 -71.196)"/></g><g transform="translate(5.469 8.228)"><path class="d" d="M96.389,36.4l-8.6,1.577-8.6,1.577L48.3,45.2a6.3,6.3,0,0,1-3.524-5.656l8.6-1.577,8.6-1.577L92.865,30.74A6.3,6.3,0,0,1,96.389,36.4Z" transform="translate(-44.78 -30.74)"/><path class="f" d="M113.97,47.96l-8.6,1.577H70.96l8.6-1.577Z" transform="translate(-62.361 -42.304)"/></g></g><path class="g" d="M18.469,6.3H3.15a3.151,3.151,0,0,1,0-6.3h9.016a6.28,6.28,0,0,1,4.477,1.869A6.291,6.291,0,0,1,18.465,6.3Z"/><path class="h" d="M17.621,3.15H0A3.151,3.151,0,0,1,3.15,0h9.016a6.28,6.28,0,0,1,4.477,1.869A6.215,6.215,0,0,1,17.621,3.15Z"/><g transform="translate(9.236 9.453)"><path class="i" d="M85.2,35.08H34.42a6.28,6.28,0,0,1-4.477-1.869A6.291,6.291,0,0,1,28.12,28.78H78.9a6.237,6.237,0,0,1,2.775.644,6.308,6.308,0,0,1,2.68,2.506A6.238,6.238,0,0,1,85.2,35.08Z" transform="translate(-28.12 -28.78)"/><path class="j" d="M84.357,31.93H28.964a6.229,6.229,0,0,1-.844-3.15H78.9a6.237,6.237,0,0,1,2.775.644A6.308,6.308,0,0,1,84.357,31.93Z" transform="translate(-28.12 -28.78)"/></g><g transform="translate(14.705 18.906)"><path class="k" d="M90.921,63.86H51.08a6.237,6.237,0,0,1-2.775-.644,6.307,6.307,0,0,1-2.68-2.506,6.238,6.238,0,0,1-.844-3.15H84.621a6.326,6.326,0,0,1,2.992.752,6.393,6.393,0,0,1,2.47,2.4,6.26,6.26,0,0,1,.841,3.15Z" transform="translate(-44.777 -57.56)"/><path class="j" d="M90.07,60.71H45.614a6.238,6.238,0,0,1-.844-3.15H84.611a6.326,6.326,0,0,1,2.992.752,6.393,6.393,0,0,1,2.47,2.4Z" transform="translate(-44.77 -57.56)"/></g><g transform="translate(19.303 28.358)"><path class="l" d="M95.714,89.49a3.15,3.15,0,0,1-3.15,3.15H65.073a6.237,6.237,0,0,1-2.989-.752h0a6.37,6.37,0,0,1-2.47-2.4,6.26,6.26,0,0,1-.841-3.15H92.561a3.15,3.15,0,0,1,3.15,3.15Z" transform="translate(-58.77 -86.34)"/><path class="j" d="M95.721,89.49h-36.1a6.26,6.26,0,0,1-.841-3.15H92.571A3.15,3.15,0,0,1,95.721,89.49Z" transform="translate(-58.777 -86.34)"/></g></g></g></g></svg>