<svg xmlns="http://www.w3.org/2000/svg" width="24" height="24" viewBox="0 0 24 24"><defs><style>.a{fill:#d9d5d5;opacity:0;}</style></defs><g transform="translate(-237 -252)"><rect class="a" width="24" height="24" rx="4" transform="translate(237 252)"/><g transform="translate(230.337 172.67)"><path d="M87.487,150.929a.355.355,0,1,0,0-.71h-.532v-.532a.355.355,0,0,0-.71,0v.532h-.532a.355.355,0,1,0,0,.71h.532v.532a.355.355,0,0,0,.71,0v-.532Z" transform="translate(-72.211 -61.874)"/><circle cx="0.355" cy="0.355" r="0.355" transform="translate(22.905 87.459)"/><circle cx="0.355" cy="0.355" r="0.355" transform="translate(22.905 89.234)"/><circle cx="0.355" cy="0.355" r="0.355" transform="translate(23.793 88.347)"/><circle cx="0.355" cy="0.355" r="0.355" transform="translate(22.018 88.347)"/><path d="M139.909,234.667a1.242,1.242,0,1,0,1.242,1.242A1.242,1.242,0,0,0,139.909,234.667Zm0,1.774a.532.532,0,1,1,.532-.532A.532.532,0,0,1,139.909,236.441Z" transform="translate(-123.745 -144.369)"/><path d="M299.909,234.667a1.242,1.242,0,1,0,1.242,1.242A1.242,1.242,0,0,0,299.909,234.667Zm0,1.774a.532.532,0,1,1,.532-.532A.532.532,0,0,1,299.909,236.441Z" transform="translate(-278.423 -144.369)"/><path d="M214.043,202.666h-.355a.355.355,0,1,0,0,.71h.355a.355.355,0,1,0,0-.71Z" transform="translate(-195.928 -113.433)"/><path d="M267.376,202.666h-.355a.355.355,0,1,0,0,.71h.355a.355.355,0,1,0,0-.71Z" transform="translate(-247.486 -113.433)"/><path d="M26.093,87.723a3.227,3.227,0,0,0-3.953-2.282,3.664,3.664,0,0,0-1.719,1.176.361.361,0,0,1-.288.132H17.517a.362.362,0,0,1-.288-.132,3.661,3.661,0,0,0-1.719-1.176,3.227,3.227,0,0,0-3.953,2.282c-1.451,5.417-1.137,8.323.96,8.885,1.3.349,2.485-.462,3.524-2.41.042,0,.082,0,.122,0a2.635,2.635,0,0,0,1.807-.71h1.709a2.635,2.635,0,0,0,1.807.71c.04,0,.081,0,.122,0,.882,1.655,1.87,2.489,2.945,2.489a2.229,2.229,0,0,0,.579-.079C27.23,96.046,27.544,93.14,26.093,87.723Zm-1.144,8.2c-.98.262-1.927-.5-2.82-2.262a.356.356,0,0,0-.366-.191,1.972,1.972,0,0,1-.277.022,1.934,1.934,0,0,1-1.406-.6.355.355,0,0,0-.256-.109h-2a.355.355,0,0,0-.256.109,1.934,1.934,0,0,1-1.406.6,1.972,1.972,0,0,1-.277-.022.357.357,0,0,0-.366.191c-.893,1.763-1.841,2.525-2.82,2.262-1.591-.426-1.749-3.2-.459-8.016a2.513,2.513,0,0,1,3.083-1.78,2.955,2.955,0,0,1,1.34.923,1.075,1.075,0,0,0,.852.41h2.615a1.075,1.075,0,0,0,.852-.41,2.955,2.955,0,0,1,1.34-.922,2.518,2.518,0,0,1,3.084,1.78C26.7,92.725,26.539,95.5,24.949,95.923Z"/></g></g></svg>