<svg xmlns="http://www.w3.org/2000/svg" width="24" height="24" viewBox="0 0 24 24"><defs><style>.a{fill:#d9d5d5;opacity:0;}</style></defs><g transform="translate(-237 -252)"><rect class="a" width="24" height="24" rx="4" transform="translate(237 252)"/><g transform="translate(241 258)"><path d="M15.97,0H5.036a1,1,0,0,0-.994.994H.5a.5.5,0,0,0-.5.5V12.425a.5.5,0,0,0,.5.5h4.97a.5.5,0,0,0,.5-.5V9.94H8.515v1.988H7.521a.5.5,0,1,0,0,.994h5.964a.5.5,0,0,0,0-.994h-.994V9.94H15.97a1,1,0,0,0,.994-.994V.994A1,1,0,0,0,15.97,0ZM.994,3.976H4.042V4.97H.994ZM4.042,1.988v.994H.994V1.988ZM.994,11.928V5.964H4.042V8.946a1,1,0,0,0,.928.992v1.99Zm10.5,0H9.509V9.94H11.5ZM15.97,8.946H5.036V.994H15.97Zm0,0"/><path d="M75.994,311.5a.5.5,0,1,1-.5-.5A.5.5,0,0,1,75.994,311.5Zm0,0" transform="translate(-72.515 -300.696)"/></g></g></svg>