<svg xmlns="http://www.w3.org/2000/svg" width="24" height="24" viewBox="0 0 24 24"><defs><style>.a{fill:rgba(244,244,244,0);}</style></defs><g transform="translate(-237 -252)"><rect class="a" width="24" height="24" rx="4" transform="translate(237 252)"/><g transform="translate(241 173.667)"><g transform="translate(0 85.333)"><path d="M15.667,93.458h-1V86.583a1.3,1.3,0,0,0-1.333-1.25H2.667a1.3,1.3,0,0,0-1.333,1.25v6.875h-1A.323.323,0,0,0,0,93.77v.313a1.3,1.3,0,0,0,1.333,1.25H14.667A1.3,1.3,0,0,0,16,94.083V93.77A.323.323,0,0,0,15.667,93.458ZM2,86.583a.648.648,0,0,1,.667-.625H13.333a.648.648,0,0,1,.667.625v6.875H2Zm12.667,8.125H1.333a.648.648,0,0,1-.667-.625H6.2l.236.221a.345.345,0,0,0,.236.092H9.333a.345.345,0,0,0,.236-.092l.236-.221h5.529A.648.648,0,0,1,14.667,94.708Z" transform="translate(0 -85.333)"/></g></g></g></svg>