<svg xmlns="http://www.w3.org/2000/svg" width="24" height="24" viewBox="0 0 24 24"><defs><style>.a{fill:#d9d5d5;opacity:0;}</style></defs><g transform="translate(-237 -252)"><rect class="a" width="24" height="24" rx="4" transform="translate(237 252)"/><g transform="translate(217 247)"><path d="M168.284,32.568h2.271a.284.284,0,0,0,0-.568h-2.271a.284.284,0,0,0,0,.568Z" transform="translate(-138.891 -23.149)"/><path d="M192.852,464h-.568a.284.284,0,1,0,0,.568h.568a.284.284,0,1,0,0-.568Z" transform="translate(-162.04 -439.822)"/><path d="M39.469,13.677H37.056V8.993A1,1,0,0,0,36.063,8H24.993A1,1,0,0,0,24,8.993V24.6a1,1,0,0,0,.993.993H39.469a1,1,0,0,0,.993-.993V14.67A1,1,0,0,0,39.469,13.677Zm-1.641.568-.142.568H35.859l-.142-.568ZM24.993,25.03a.426.426,0,0,1-.426-.426V8.993a.426.426,0,0,1,.426-.426H36.063a.426.426,0,0,1,.426.426v4.683H36.2V9.987a.284.284,0,0,0-.284-.284H25.135a.284.284,0,0,0-.284.284V23.611a.284.284,0,0,0,.284.284h7.947v.71a.985.985,0,0,0,.1.426Zm8.089-10.36v8.657H25.419V10.271H35.637v3.406H34.076A1,1,0,0,0,33.083,14.67ZM39.895,24.6a.426.426,0,0,1-.426.426H34.076a.426.426,0,0,1-.426-.426V14.67a.426.426,0,0,1,.426-.426h1.056l.23.92a.284.284,0,0,0,.275.215h2.271a.284.284,0,0,0,.275-.215l.23-.92h1.056a.426.426,0,0,1,.426.426Z"/><path d="M361.419,464h-1.135a.284.284,0,0,0,0,.568h1.135a.284.284,0,1,0,0-.568Z" transform="translate(-324.079 -439.822)"/></g></g></svg>