<svg xmlns="http://www.w3.org/2000/svg" width="24" height="24" viewBox="0 0 24 24"><defs><style>.a{fill:none;}</style></defs><g transform="translate(-237 -252)"><rect class="a" width="24" height="24" rx="4" transform="translate(237 252)"/><path d="M12.667,3H3.333A3.526,3.526,0,0,0,0,6.684v4.421a3.526,3.526,0,0,0,3.333,3.684h4v.737h-2a.741.741,0,0,0,0,1.474h5.333a.741.741,0,0,0,0-1.474h-2v-.737h4A3.526,3.526,0,0,0,16,11.105V6.684A3.526,3.526,0,0,0,12.667,3Zm2,8.105a2.113,2.113,0,0,1-2,2.211H3.333a2.113,2.113,0,0,1-2-2.211V6.684a2.113,2.113,0,0,1,2-2.211h9.333a2.113,2.113,0,0,1,2,2.211Z" transform="translate(241 254)"/></g></svg>