<svg xmlns="http://www.w3.org/2000/svg" xmlnSvgjs="http://svgjs.com/svgjs" xmlnsXlink="http://www.w3.org/1999/xlink" width="288" height="288"><svg xmlns="http://www.w3.org/2000/svg" width="288" height="288" viewBox="0 0 24 24"><rect width="24" height="24" fill="none"/><path fill="none" d="M0,0H24V24H0Z"/><path fill="none" stroke="#fff" stroke-linecap="round" stroke-linejoin="round" stroke-width="2" d="M17.741.191a.75.75,0,0,1,.245.476l1.333,12a.75.75,0,0,1-.745.833H.75A.75.75,0,0,1,0,12.667l1.333-12A.75.75,0,0,1,2.083,0H17.241a.75.75,0,0,1,.5.191Z" class="colorStroke000 svgStroke" transform="translate(2.338 6.75)"/><path fill="none" stroke="#fff" stroke-linecap="round" stroke-linejoin="round" stroke-width="2" d="M0,3.75a3.75,3.75,0,0,1,7.5,0" class="colorStroke000 svgStroke" transform="translate(8.25 2)"/></svg></svg>