<svg xmlns="http://www.w3.org/2000/svg" width="24" height="24" viewBox="0 0 24 24"><defs><style>.a,.b{fill:none;}.b{stroke:#b00020;stroke-linecap:round;stroke-linejoin:round;stroke-width:1.6px;}</style></defs><rect class="a" width="24" height="24"/><path class="b" d="M0,3.2H15" transform="translate(4 4)"/><path class="b" d="M4.167,3.2V2.56A3.826,3.826,0,0,1,4.348.874a1.635,1.635,0,0,1,.728-.7A4.3,4.3,0,0,1,6.833,0H8.167A4.3,4.3,0,0,1,9.923.174a1.635,1.635,0,0,1,.728.7,3.827,3.827,0,0,1,.182,1.686V3.2m-5,8.4v-4m3.333,0v4m4.167-8.4v8.96a5.74,5.74,0,0,1-.272,2.53,2.452,2.452,0,0,1-1.093,1.049A6.453,6.453,0,0,1,9.333,16H5.667a6.453,6.453,0,0,1-2.635-.262A2.452,2.452,0,0,1,1.939,14.69a5.74,5.74,0,0,1-.272-2.53V3.2" transform="translate(4 4)"/></svg>