<?xml version="1.0" standalone="no"?>
<!DOCTYPE svg PUBLIC "-//W3C//DTD SVG 20010904//EN"
 "http://www.w3.org/TR/2001/REC-SVG-20010904/DTD/svg10.dtd">
<svg version="1.0" xmlns="http://www.w3.org/2000/svg"
 width="128.000000pt" height="128.000000pt" viewBox="0 0 128.000000 128.000000"
 preserveAspectRatio="xMidYMid meet">

<g transform="translate(0.000000,128.000000) scale(0.100000,-0.100000)"
fill="#000000" stroke="none">
<path d="M560 1227 c-19 -6 -58 -34 -85 -62 -53 -52 -75 -102 -75 -169 0 -34
-2 -36 -32 -36 -18 0 -47 -9 -65 -20 -62 -37 -63 -44 -78 -342 -21 -402 -21
-462 -1 -493 9 -14 31 -35 49 -45 30 -19 53 -20 367 -20 314 0 337 1 367 20
18 10 40 31 49 45 20 31 20 91 -1 493 -15 298 -16 305 -78 342 -18 11 -47 20
-64 20 -31 0 -33 2 -33 36 0 61 -22 114 -67 164 -65 72 -158 97 -253 67z m168
-94 c44 -33 65 -69 70 -122 l5 -51 -162 0 -161 0 0 34 c0 67 36 125 95 152 40
19 119 12 153 -13z m-243 -337 c0 -17 -7 -33 -18 -40 -15 -9 -22 -7 -37 12
-26 32 -11 65 28 60 22 -2 27 -8 27 -32z m375 15 c15 -28 -21 -71 -47 -55 -20
12 -28 37 -19 60 8 21 53 17 66 -5z"/>
</g>
</svg>
