<svg xmlns="http://www.w3.org/2000/svg" width="22.001" height="22" viewBox="0 0 22.001 22"><defs><style>.a{fill:#eceff1;}.b{fill:#ffc107;}.c{fill:#2f4b66;}.d{fill:#fff;}</style></defs><path class="a" d="M24.717,36.024A5.773,5.773,0,0,1,24.5,34.46a4.053,4.053,0,0,1,1.359-3.18,6.411,6.411,0,0,1,4.018-2.544V22.67a1.862,1.862,0,0,0-1.862-1.862H18.5a1.867,1.867,0,0,0-1.862,1.862V35.493A1.867,1.867,0,0,0,18.5,37.355h6.57A6.354,6.354,0,0,1,24.717,36.024Zm0,0" transform="translate(-15.926 -19.915)"/><path class="b" d="M77.418,118.715a1.375,1.375,0,1,1-1.375-1.375A1.375,1.375,0,0,1,77.418,118.715Zm0,0" transform="translate(-71.46 -112.298)"/><path class="c" d="M16.039,197.2a6.417,6.417,0,0,1,3.86-5.884l-.694-.65a1.611,1.611,0,0,0-2.162,0l-4.151,3.889-1.1-1.029a1.611,1.611,0,0,0-2.163,0L7.66,195.372v2.705a1.907,1.907,0,0,0,1.962,1.839h7.026A6.4,6.4,0,0,1,16.039,197.2Zm0,0" transform="translate(-7.331 -182.074)"/><path class="d" d="M256.531,253.345a4.585,4.585,0,1,0-4.583,4.583A4.552,4.552,0,0,0,256.531,253.345Zm0,0" transform="translate(-236.854 -238.189)"/><path d="M238.983,245.482a5.042,5.042,0,1,1,5.042-5.042A5.048,5.048,0,0,1,238.983,245.482Zm0-8.708a3.667,3.667,0,1,0,3.667,3.667A3.67,3.67,0,0,0,238.983,236.773Zm0,0" transform="translate(-223.889 -225.284)"/><path d="M415.034,415.707a.683.683,0,0,1-.486-.2l-2.948-2.948a.688.688,0,0,1,.972-.973l2.948,2.948a.688.688,0,0,1-.487,1.174Zm0,0" transform="translate(-393.721 -393.707)"/><path d="M65.833,110.342a1.833,1.833,0,1,1,1.833-1.833A1.835,1.835,0,0,1,65.833,110.342Zm0-2.292a.458.458,0,1,0,.458.458A.459.459,0,0,0,65.833,108.051Zm0,0" transform="translate(-61.25 -102.092)"/><path d="M.691,180.946a.688.688,0,0,1-.486-1.174l1.87-1.87a1.61,1.61,0,0,1,2.273,0L5.5,179.057l4.363-4.363a1.61,1.61,0,0,1,2.273,0l.5.495a.688.688,0,0,1-.973.973l-.495-.5a.236.236,0,0,0-.33,0L5.99,180.515a.688.688,0,0,1-.973,0l-1.641-1.641a.236.236,0,0,0-.33,0l-1.87,1.87A.678.678,0,0,1,.691,180.946Zm0,0" transform="translate(-0.004 -166.738)"/><path d="M8.47,18.341H2.521A2.523,2.523,0,0,1,0,15.82V2.529A2.523,2.523,0,0,1,2.521.008h9.625a2.523,2.523,0,0,1,2.521,2.521V8.478a.688.688,0,0,1-1.375,0V2.529a1.147,1.147,0,0,0-1.146-1.146H2.521A1.147,1.147,0,0,0,1.375,2.529V15.82a1.147,1.147,0,0,0,1.146,1.146H8.47a.688.688,0,0,1,0,1.375Zm0,0" transform="translate(0 -0.008)"/></svg>