<svg xmlns="http://www.w3.org/2000/svg" width="24" height="24" viewBox="0 0 24 24"><defs><style>.a{fill:none;}.b{fill:#f8e7ca;}.c{fill:#fff;}.d{fill:#f0a428;}.e{fill:#e2dfe2;}</style></defs><g transform="translate(-428 -16)"><rect class="a" width="24" height="24" transform="translate(428 16)"/><g transform="translate(401.083 19)"><path class="b" d="M46.878,7.48a7.48,7.48,0,1,0-9.535,7.194,1.125,1.125,0,0,1,.668.518l.95,1.647a.5.5,0,0,0,.873,0l.95-1.647a1.124,1.124,0,0,1,.668-.518A7.483,7.483,0,0,0,46.878,7.48Z" transform="translate(0 0)"/><path class="c" d="M232.894,0q-.375,0-.742.042a7.481,7.481,0,0,1,1.258,14.632,1.124,1.124,0,0,0-.668.518l-.59,1.023.36.624a.5.5,0,0,0,.873,0l.95-1.647a1.124,1.124,0,0,1,.668-.518A7.481,7.481,0,0,0,232.894,0Z" transform="translate(-193.55 0)"/><path class="d" d="M224.81,97.615h-.3a.724.724,0,0,1-.723-.683l-.21-3.729a1.082,1.082,0,1,1,2.161,0l-.21,3.729A.724.724,0,0,1,224.81,97.615Z" transform="translate(-185.264 -88.987)"/><path class="e" d="M247.673,92.06a1.084,1.084,0,0,0-.288.039,1.083,1.083,0,0,1,.793,1.1l-.21,3.729a.724.724,0,0,1-.583.67.726.726,0,0,0,.14.014h.3a.724.724,0,0,0,.723-.683l.21-3.729A1.082,1.082,0,0,0,247.673,92.06Z" transform="translate(-208.275 -88.987)"/><path class="d" d="M233.476,294.511h-.469a.551.551,0,0,1-.551-.551v-.378a.551.551,0,0,1,.551-.551h.469a.551.551,0,0,1,.551.551v.378A.551.551,0,0,1,233.476,294.511Z" transform="translate(-193.844 -283.248)"/><path class="e" d="M247.906,293.03h-.469l-.053,0a.551.551,0,0,1,.5.549v.378a.551.551,0,0,1-.5.549l.053,0h.469a.551.551,0,0,0,.551-.551v-.378A.551.551,0,0,0,247.906,293.03Z" transform="translate(-208.274 -283.248)"/></g></g></svg>