<svg xmlns="http://www.w3.org/2000/svg" width="17.5" height="17.5" viewBox="0 0 17.5 17.5"><defs><style>.a{fill:none;stroke:#fff;stroke-linecap:round;stroke-linejoin:round;stroke-width:1.5px;}</style></defs><g transform="translate(-2.25 -2.25)"><path class="a" d="M3,16V10.8A7.9,7.9,0,0,1,11,3a7.9,7.9,0,0,1,8,7.8V16"/><path class="a" d="M19,19a1.9,1.9,0,0,1-1.778,2h-.889a1.9,1.9,0,0,1-1.778-2V16a1.9,1.9,0,0,1,1.778-2H19ZM3,19a1.9,1.9,0,0,0,1.778,2h.889a1.9,1.9,0,0,0,1.778-2V16a1.9,1.9,0,0,0-1.778-2H3Z" transform="translate(0 -2)"/></g></svg>