<svg xmlns="http://www.w3.org/2000/svg" width="18" height="18" viewBox="0 0 18 18"><g transform="translate(-1298.625 -45.998)"><path d="M688.437,572.377a9.4,9.4,0,0,0-4.393-6.917.933.933,0,1,0-.977,1.59,7.516,7.516,0,0,1,3.516,5.531.934.934,0,0,0,.926.831.959.959,0,0,0,.1-.006A.932.932,0,0,0,688.437,572.377Z" transform="translate(628.182 -509.416)"/><path d="M24.314,12.7A5.388,5.388,0,1,0,13.84,14.48a.9.9,0,1,0,1.7-.592A3.592,3.592,0,1,1,18.927,16.3,8.971,8.971,0,0,0,10,24.3a.9.9,0,0,0,.795.994.922.922,0,0,0,.1.005.9.9,0,0,0,.891-.8,7.174,7.174,0,0,1,7.139-6.4A5.4,5.4,0,0,0,24.314,12.7Z" transform="translate(1288.629 38.7)"/><path d="M9.671,12.7a5.388,5.388,0,1,1,10.475,1.781.9.9,0,1,1-1.7-.592A3.592,3.592,0,1,0,15.059,16.3a8.971,8.971,0,0,1,8.926,8,.9.9,0,0,1-.795.994.921.921,0,0,1-.1.005.9.9,0,0,1-.891-.8,7.174,7.174,0,0,0-7.14-6.4A5.4,5.4,0,0,1,9.671,12.7Z" transform="translate(1292.629 38.7)"/></g></svg>