<?xml version="1.0" standalone="no"?>
<!DOCTYPE svg PUBLIC "-//W3C//DTD SVG 20010904//EN"
 "http://www.w3.org/TR/2001/REC-SVG-20010904/DTD/svg10.dtd">
<svg version="1.0" xmlns="http://www.w3.org/2000/svg"
 width="128.000000pt" height="128.000000pt" viewBox="0 0 128.000000 128.000000"
 preserveAspectRatio="xMidYMid meet">

<g transform="translate(0.000000,128.000000) scale(0.100000,-0.100000)"
fill="#000000" stroke="none">
<path d="M530 1260 c-94 -17 -158 -86 -175 -187 -5 -35 -4 -43 8 -43 10 0 18
14 22 43 9 51 37 100 73 126 35 24 107 44 133 36 19 -6 19 -7 -5 -26 -13 -10
-34 -38 -45 -62 -21 -44 -29 -117 -12 -117 11 0 21 25 21 52 0 33 45 101 79
121 l30 18 40 -40 c36 -36 61 -90 61 -133 0 -10 7 -18 16 -18 14 0 15 7 10 41
-21 130 -132 212 -256 189z"/>
<path d="M711 1261 c-11 -7 -2 -12 30 -20 103 -26 167 -85 176 -165 7 -55 33
-66 33 -13 -1 78 -85 180 -159 193 -20 3 -43 8 -51 10 -8 2 -21 0 -29 -5z"/>
<path d="M190 993 c0 -5 -20 -224 -44 -488 -33 -360 -41 -482 -33 -487 17 -11
675 -10 681 1 3 5 24 206 46 448 21 241 42 459 45 486 l6 47 -351 0 c-192 0
-350 -3 -350 -7z"/>
<path d="M916 968 c-3 -18 -21 -213 -41 -433 -19 -220 -37 -420 -41 -444 -7
-53 -4 -52 90 15 l66 48 0 423 0 423 -35 0 c-31 0 -35 -3 -39 -32z"/>
<path d="M1020 576 l0 -425 77 -55 c42 -31 78 -55 79 -53 1 1 -18 213 -42 472
-24 259 -43 473 -44 478 0 4 -16 7 -35 7 l-35 0 0 -424z"/>
<path d="M935 79 c-38 -27 -74 -54 -79 -59 -7 -7 44 -10 142 -10 84 0 152 3
152 8 0 4 -15 17 -33 29 -17 11 -50 35 -72 51 l-40 30 -70 -49z"/>
</g>
</svg>
