<svg xmlns="http://www.w3.org/2000/svg" width="16" height="16" viewBox="0 0 16 16"><defs><style>.a{fill:#fafafa;}</style></defs><circle cx="8" cy="8" r="8"/><path class="a" d="M120.425,118.1a5.472,5.472,0,0,1-2.424-.554.5.5,0,0,0-.664.23l-.357.738a6.979,6.979,0,0,1-2.574-2.574l.739-.357a.5.5,0,0,0,.23-.664,5.453,5.453,0,0,1-.555-2.424.5.5,0,0,0-.5-.5H112.5a.5.5,0,0,0-.5.5,8.435,8.435,0,0,0,8.425,8.425.5.5,0,0,0,.5-.5V118.6A.5.5,0,0,0,120.425,118.1Z" transform="translate(-108.531 -108.531)"/></svg>