<svg xmlns="http://www.w3.org/2000/svg" width="22.245" height="19.058" viewBox="0 0 22.245 19.058"><defs><style>.a{stroke:#000;stroke-width:0.4px;}</style></defs><g transform="translate(0.2 0.2)"><path class="a" d="M25.981,81.5a6.51,6.51,0,0,0-5.058,2.532A6.506,6.506,0,0,0,15.872,81.5,5.857,5.857,0,0,0,10,87.6c0,4.075,3.613,6.919,6.253,9,1,.789,1.732,1.346,2.329,1.8a18.291,18.291,0,0,1,1.926,1.585.592.592,0,0,0,.834,0,27.277,27.277,0,0,1,2.927-2.378l1.32-1c2.185-1.665,6.257-4.759,6.257-9.044A5.836,5.836,0,0,0,25.981,81.5ZM15.872,82.684a5.549,5.549,0,0,1,4.561,2.668.628.628,0,0,0,.981,0,5.56,5.56,0,0,1,4.57-2.67,4.683,4.683,0,0,1,4.686,4.882c0,3.413-2.992,5.974-5.8,8.105l-1.32,1c-1.371,1.039-2.037,1.545-2.633,2.086C20.486,98.366,20,98,19.3,97.461c-.571-.435-1.306-.994-2.318-1.794-2.448-1.924-5.8-4.561-5.8-8.063A4.7,4.7,0,0,1,15.872,82.684Z" transform="translate(-10 -81.5)"/></g></svg>