<svg xmlns="http://www.w3.org/2000/svg" width="363" height="241" viewBox="0 0 363 241"><defs><style>.a{fill:#f2f2f2;}.b{fill:#e4e4e4;}.c{fill:#2874f0;}.d{fill:#f0f0f0;}.e{fill:#ccc;}.f{fill:#3f3d56;}.g{opacity:0.2;}.h{fill:#cacaca;}</style></defs><path class="a" d="M488.672,306.68c-3.242-5.362-7.083-11.086-13.1-12.837-6.967-2.027-14.123,2-20.193,5.974A588.442,588.442,0,0,0,403.012,338.4l.018.208,39.077-2.695c9.411-.649,19.146-1.388,27.462-5.84,3.156-1.689,6.232-3.946,9.809-4.1,4.443-.2,8.317,2.908,11.362,6.15,18.009,19.177,23.221,48.5,43.426,65.353A641.2,641.2,0,0,0,488.672,306.68Z" transform="translate(-304.732 -238.992)"/><path class="b" d="M540.306,452.248c-1.992-2.515-2.805-3.1-4.77-5.642q-23.993-31.032-45.1-64.16-14.339-22.5-27.256-45.863-6.149-11.107-11.962-22.389-4.51-8.747-8.819-17.6c-.822-1.686-1.62-3.379-2.414-5.076-1.872-3.991-3.708-8-5.681-11.938-2.247-4.487-4.983-9.191-9.11-12.206a12.429,12.429,0,0,0-6.475-2.492c-3.359-.217-6.459,1.17-9.373,2.685a301.729,301.729,0,0,0-59.332,40.915,308.885,308.885,0,0,0-48.2,53.508c-.426.608-1.434.027-1-.585q2.54-3.592,5.181-7.106a310.593,310.593,0,0,1,79.295-73.963q7.713-5,15.716-9.528c2.689-1.523,5.39-3.026,8.137-4.437a19.826,19.826,0,0,1,8.629-2.674c10.47-.163,15.891,11.694,19.615,19.673q1.755,3.766,3.553,7.509,6.795,14.211,14.112,28.162,4.516,8.614,9.23,17.127,14.67,26.51,31.185,51.946c14.585,22.463,29.054,42.306,45.669,63.311C541.585,452.008,540.767,452.837,540.306,452.248Z" transform="translate(-245.681 -222.15)"/><path class="b" d="M286.479,329.592c-.608-.678-1.213-1.356-1.825-2.034-4.828-5.34-10.009-10.617-16.639-13.678a24.139,24.139,0,0,0-10.113-2.344,28.862,28.862,0,0,0-10.5,2.29c-1.581.632-3.127,1.348-4.65,2.112-1.74.876-3.449,1.81-5.15,2.751q-4.789,2.65-9.455,5.533-9.282,5.737-17.983,12.349-4.51,3.429-8.835,7.083-4.022,3.394-7.881,6.971c-.55.508-1.372-.314-.822-.821.678-.632,1.364-1.259,2.05-1.879q2.906-2.627,5.905-5.154,5.469-4.615,11.222-8.873,8.945-6.626,18.506-12.353,4.778-2.86,9.687-5.479c.988-.527,1.988-1.042,3-1.531a47.81,47.81,0,0,1,7.13-2.9,25.364,25.364,0,0,1,10.768-1.058,28.035,28.035,0,0,1,9.935,3.437c6.51,3.639,11.559,9.265,16.472,14.755C287.8,329.324,286.979,330.15,286.479,329.592Z" transform="translate(-182.93 -248.827)"/><path class="b" d="M729.515,469.2l15.6-5.705,7.745-2.833a79.192,79.192,0,0,1,7.646-2.633,12.062,12.062,0,0,1,6.921.088,15.951,15.951,0,0,1,5.4,3.346,43.8,43.8,0,0,1,4.428,4.728c1.686,2.026,3.347,4.074,5.016,6.115q10.331,12.634,20.527,25.378t20.255,25.6q10.084,12.883,20.029,25.875,1.218,1.592,2.434,3.185c.448.587,1.458.008,1-.587q-10.018-13.122-20.177-26.136-10.183-13.046-20.507-25.98t-20.787-25.757q-2.607-3.194-5.222-6.382c-1.471-1.792-2.925-3.6-4.538-5.273-2.961-3.062-6.661-5.769-11.089-5.842a21.4,21.4,0,0,0-7.542,1.658c-2.608.943-5.209,1.9-7.814,2.857l-15.708,5.745-3.927,1.436c-.7.255-.4,1.379.309,1.121Z" transform="translate(-493.145 -333.391)"/><path class="a" d="M331.735,330.976a25.183,25.183,0,0,0-25.363,1.814,361.751,361.751,0,0,1,41.157,9.606C341.915,339.105,337.523,333.951,331.735,330.976Z" transform="translate(-248.803 -259.204)"/><path class="a" d="M304.1,338.784l-1.526,1.24c.516-.434,1.053-.841,1.6-1.226Z" transform="translate(-246.512 -265.213)"/><path class="a" d="M821.119,480.583c-1.536-1.869-3.2-3.826-5.492-4.585l-2.144.085a243.225,243.225,0,0,0,64.783,74.062Z" transform="translate(-542.028 -344.716)"/><path class="a" d="M514.121,450.366a15.842,15.842,0,0,0,6.311,8.859c1.192.812,2.6,1.59,3.01,2.973a3.542,3.542,0,0,1-.369,2.6,10.518,10.518,0,0,1-1.632,2.131l-.058.216c-2.958-1.753-5.772-3.97-7.406-7s-1.862-6.991.144-9.783" transform="translate(-368.04 -329.727)"/><path class="a" d="M747.121,653.367a15.842,15.842,0,0,0,6.311,8.859c1.192.812,2.6,1.59,3.01,2.973a3.541,3.541,0,0,1-.369,2.6,10.518,10.518,0,0,1-1.632,2.131l-.058.216c-2.958-1.753-5.772-3.97-7.406-7s-1.862-6.991.144-9.783" transform="translate(-502.712 -447.114)"/><path class="a" d="M282.121,639.367a15.843,15.843,0,0,0,6.311,8.859c1.192.812,2.6,1.59,3.01,2.973a3.542,3.542,0,0,1-.369,2.6,10.516,10.516,0,0,1-1.632,2.131l-.058.216c-2.958-1.753-5.772-3.97-7.406-7s-1.862-6.991.144-9.783" transform="translate(-233.872 -439.032)"/><circle class="c" cx="21.557" cy="21.557" r="21.557" transform="translate(252.426)"/><path class="d" d="M853.236,176c-10.447-1.412-22.375,4.235-25.082,14.423a9.128,9.128,0,0,0-17.369.891l1.2.857a157.354,157.354,0,0,0,67.907-.307C872.62,184.23,863.683,177.416,853.236,176Z" transform="translate(-540.47 -170.986)"/><path class="d" d="M747.236,244c-10.447-1.412-22.375,4.235-25.082,14.423a9.128,9.128,0,0,0-17.369.891l1.2.857a157.354,157.354,0,0,0,67.908-.307C766.62,252.23,757.683,245.416,747.236,244Z" transform="translate(-479.144 -210.244)"/><path class="e" d="M533.768,217.856a.413.413,0,0,1-.127-.02,594.981,594.981,0,0,0-272.783-20.621c-8.554,1.374-17.13,2.961-25.491,4.718-2.135.448-4.349.928-6.582,1.428-2.667.595-5.3,1.207-7.821,1.82q-1.634.388-3.205.781c-1.586.392-3.2.8-4.921,1.25-1.928.5-3.886,1.02-5.823,1.552l-.022.006h0c-2.187.6-4.363,1.214-6.467,1.828-1.139.329-2.238.654-3.291.975-.118.033-.222.064-.328.1l-.226.069c-.131.04-.26.079-.39.116l-.008,0h0l-.342.107c-.408.124-.807.245-1.2.365-10.358,3.2-16.053,5.473-16.109,5.5a.423.423,0,0,1-.314-.785c.057-.022,5.779-2.309,16.175-5.519.393-.121.793-.242,1.2-.366l.318-.1.033-.011c.129-.037.257-.076.388-.116l.227-.069c.113-.034.224-.068.338-.1,1.046-.319,2.149-.644,3.291-.975,2.1-.615,4.282-1.23,6.471-1.829l.021-.006h0c1.943-.534,3.909-1.058,5.843-1.557,1.728-.449,3.34-.859,4.929-1.252q1.577-.393,3.211-.783c2.526-.613,5.162-1.227,7.834-1.823,2.236-.5,4.455-.982,6.593-1.43,8.374-1.759,16.964-3.349,25.531-4.725A595.816,595.816,0,0,1,533.9,217.031a.423.423,0,0,1-.127.826Z" transform="translate(-174.622 -178.662)"/><path class="f" d="M322.978,523.341a2.844,2.844,0,0,0-.719-1.129,2.715,2.715,0,0,0-.389-.3,3.249,3.249,0,0,0-3.8,0,2.455,2.455,0,0,0-.292.3q-.469.577-.964,1.129c-.541.617-1.095,1.213-1.674,1.792-.165.161-.33.326-.5.486-.1.1-.194.19-.292.283-.372.355-.752.7-1.137,1.036-.2.182-.406.359-.613.533-.309.258-.617.516-.93.765-.03.021-.059.042-.089.068-.008,0-.013.013-.021.017s-.008,0-.013.008a.075.075,0,0,0-.03.021c-.093.063-.156.106-.2.144.017-.008.034-.021.051-.03-.076.059-.156.118-.232.177-.74.545-1.5,1.069-2.27,1.56a41.932,41.932,0,0,1-6.011,3.191c-.139.055-.283.114-.427.169a36.339,36.339,0,0,1-17.267,2.545q-.9-.07-1.8-.19c-.693-.1-1.382-.224-2.067-.364a41.394,41.394,0,0,1-7.617-2.3,50.149,50.149,0,0,1-8.733-5.123c-.423-.3-.85-.6-1.276-.892q.729-1.788,1.429-3.584c.232-.579.456-1.158.676-1.741,1.729-4.493,3.352-9.029,4.907-13.581q2.359-6.917,4.451-13.915.216-.71.418-1.42,1.1-3.7,2.1-7.41c.063-.241.131-.478.19-.719q.292-1.065.571-2.13a3.17,3.17,0,1,0-6.112-1.687c-.182.685-.363,1.365-.549,2.05q-1.338,4.964-2.815,9.895l-.431,1.42q-3.259,10.74-7.156,21.265-.469,1.274-.951,2.54c-.156.414-.313.828-.473,1.243-.309.816-.626,1.632-.943,2.447-.182.478-.368.955-.554,1.429-.123.3-.241.6-.359.9a17.675,17.675,0,0,0-3.724-.9l-.2-.025a11.577,11.577,0,0,0-2.963.025,10.108,10.108,0,0,0-7.287,4.506c-2.016,3.174-1.991,7.714.837,10.411,2.912,2.777,7.321,2.756,10.749,1.019a11.984,11.984,0,0,0,4.447-4.168,21.371,21.371,0,0,0,1.158-1.965c.089.059.178.118.266.182.338.237.676.478,1.01.714a47.23,47.23,0,0,0,6.133,3.766,45.8,45.8,0,0,0,14.633,4.425c.114.013.224.03.338.042.562.072,1.129.127,1.695.173a43.867,43.867,0,0,0,23.493-4.8q.919-.476,1.822-1,1.4-.812,2.739-1.725c.486-.33.96-.664,1.429-1.014a42.711,42.711,0,0,0,5.71-5.051q1-1.046,1.906-2.16a3.408,3.408,0,0,0,.93-2.24A3.2,3.2,0,0,0,322.978,523.341Zm-69.992,10.068c.089-.063.178-.131.262-.2C253.222,533.274,253.1,533.346,252.986,533.409Zm1.357-1.365c-.1.11-.186.22-.283.33a9.879,9.879,0,0,1-.951.93c-.046.042-.1.085-.148.123h0a0,0,0,0,0,0,0,1.608,1.608,0,0,0-.178.093q-.273.165-.558.3a7.183,7.183,0,0,1-1.145.317,7.1,7.1,0,0,1-.9.008h-.008a6.262,6.262,0,0,1-.613-.169c-.1-.051-.2-.11-.3-.169-.038-.034-.072-.068-.093-.089a1.04,1.04,0,0,1-.114-.123,0,0,0,0,0,0,0h0c-.047-.084-.1-.169-.144-.254a.013.013,0,0,1,0-.008c-.034-.106-.063-.216-.089-.326a5.285,5.285,0,0,1,0-.579,5.69,5.69,0,0,1,.228-.795,4.677,4.677,0,0,1,.292-.533c.008-.017.051-.085.1-.161,0,0,0,0,0-.008.063-.072.127-.148.194-.216.114-.127.237-.237.359-.351a7.606,7.606,0,0,1,.74-.427,8.236,8.236,0,0,1,1.238-.334,10.563,10.563,0,0,1,1.864.017,12.8,12.8,0,0,1,1.733.427,15.612,15.612,0,0,1-1.171,1.919C254.376,532,254.359,532.023,254.343,532.044Zm-4.7-1.391a.923.923,0,0,1-.131.165.6.6,0,0,1,.131-.165Z" transform="translate(-211.817 -346.192)"/><path class="f" d="M390.22,477.806l-.114,3.982q-.12,4.419-.249,8.842-.133,4.977-.279,9.95-.07,2.568-.144,5.136-.2,6.917-.389,13.83c-.013.478-.03.951-.042,1.429l-.19,6.86q-.108,3.722-.211,7.443-.076,2.79-.156,5.584-.571,20.244-1.141,40.489a3.233,3.233,0,0,1-3.17,3.17,3.2,3.2,0,0,1-3.17-3.17q.317-11.387.642-22.774.285-10.3.579-20.593.1-3.392.19-6.788.146-5.11.287-10.22c.013-.478.03-.951.042-1.429.008-.418.021-.833.034-1.251q.279-9.922.558-19.849.114-3.906.22-7.815.127-4.457.254-8.91c.038-1.306.072-2.608.11-3.914a3.233,3.233,0,0,1,3.17-3.17A3.2,3.2,0,0,1,390.22,477.806Z" transform="translate(-291.907 -343.93)"/><path class="f" d="M773.561,481.053a377.575,377.575,0,0,1-11.9,37.171c-1.271,3.359-2.571,6.711-3.961,10.023l.32-.757a23.071,23.071,0,0,1-2.363,4.485q-.1.136-.2.269.493-.63.187-.249c-.107.127-.213.255-.324.378a9.986,9.986,0,0,1-.951.931q-.127.109-.259.213l.4-.308c-.046.108-.369.253-.469.314a7.708,7.708,0,0,1-1.016.515l.757-.32a8.063,8.063,0,0,1-1.788.491l.843-.113a7.2,7.2,0,0,1-1.817.019l.843.113a5.918,5.918,0,0,1-1.439-.388l.757.32a5.068,5.068,0,0,1-.71-.379c-.115-.075-.467-.342-.006.01.479.366.062.031-.037-.066-.082-.081-.156-.169-.237-.251-.373-.382.421.658.168.211a7.652,7.652,0,0,1-.371-.692l.32.757a5.041,5.041,0,0,1-.308-1.121l.113.843a5.77,5.77,0,0,1,0-1.439l-.113.843a6.75,6.75,0,0,1,.421-1.555l-.32.757a7.068,7.068,0,0,1,.5-.972,2.847,2.847,0,0,1,.308-.453c.021.007-.536.639-.241.32.077-.084.15-.172.228-.254.125-.133.259-.254.391-.38.442-.42-.618.408-.108.076a8.06,8.06,0,0,1,1.162-.634l-.757.32a8.586,8.586,0,0,1,2.111-.566l-.843.113a10.835,10.835,0,0,1,2.731.032l-.843-.113a14.036,14.036,0,0,1,3.336.938l-.757-.32a35.267,35.267,0,0,1,6.31,3.854,47.318,47.318,0,0,0,6.131,3.765,45.814,45.814,0,0,0,14.634,4.427A43.931,43.931,0,0,0,823.519,526.7a3.414,3.414,0,0,0,.929-2.242,3.226,3.226,0,0,0-.929-2.242c-1.163-1.068-3.36-1.369-4.483,0a40.435,40.435,0,0,1-3.427,3.689q-.853.809-1.751,1.568-.513.434-1.04.85c-.166.131-.684.481.111-.083-.182.129-.357.271-.537.4a41.96,41.96,0,0,1-8.594,4.888l.757-.32a40.93,40.93,0,0,1-10.217,2.8l.843-.113a41.273,41.273,0,0,1-10.885-.016l.843.113a42.181,42.181,0,0,1-10.507-2.862l.757.32a49.041,49.041,0,0,1-9.187-5.322,36.734,36.734,0,0,0-4.7-2.956,18.1,18.1,0,0,0-6.1-1.855,10.523,10.523,0,0,0-10.248,4.531c-2.019,3.172-1.992,7.711.834,10.409,2.911,2.778,7.32,2.755,10.751,1.017,3.3-1.674,5.289-5.151,6.685-8.429,3.141-7.378,5.922-14.926,8.513-22.513q3.845-11.259,6.974-22.746.387-1.423.764-2.848a3.171,3.171,0,1,0-6.114-1.685Z" transform="translate(-501.764 -346.193)"/><path class="f" d="M885.138,477.806,884,518.3l-1.135,40.279-.642,22.776a3.2,3.2,0,0,0,3.17,3.17,3.233,3.233,0,0,0,3.17-3.17l1.141-40.49,1.135-40.279.642-22.776a3.2,3.2,0,0,0-3.17-3.17A3.233,3.233,0,0,0,885.138,477.806Z" transform="translate(-581.712 -343.929)"/><path class="g" d="M561.787,588.771h.984V543.949h22.964v-.982H562.771V524.054H580.5q-.39-.5-.8-.979H562.771V510.583c-.326-.139-.654-.273-.984-.4v12.89h-19.3v-16c-.331.015-.656.038-.984.066v15.939H526.112V511.134c-.331.146-.656.3-.979.462v11.479H512.192v.979h12.941v18.913H512.192v.982h12.941v44.822h.979V543.949a15.392,15.392,0,0,1,15.394,15.4v29.425h.984V543.949h19.3Zm-35.675-45.8V524.054h15.394v18.913Zm16.378,0V524.054h.386a18.911,18.911,0,0,1,18.91,18.911Z" transform="translate(-367.806 -362.654)"/><path class="f" d="M592.689,638.851a26.654,26.654,0,0,1-8.475,14.244c-.313.271-.626.533-.951.79q-1.186.108-2.354.22c-.647.059-1.285.123-1.919.182l-.114.013-.08-.693-.321-2.807a15.9,15.9,0,0,1-1.395-13.712,34.075,34.075,0,0,1,5.123-8.306c2.743-3.643,5.41-7.245,5.508-11.687a25.592,25.592,0,0,1,3.339,5.634,6.947,6.947,0,0,0-2.164,1.594c-.173.19-.347.456-.228.685.1.194.355.241.575.266l1.589.165c.423.047.845.089,1.268.135a27.045,27.045,0,0,1,1.036,5.148,25.863,25.863,0,0,1-.435,8.128Z" transform="translate(-404.719 -426.174)"/><path class="c" d="M610.621,642.307a15.619,15.619,0,0,0-5.085,7.3,7.028,7.028,0,0,0-3.031,1.936c-.173.19-.347.457-.228.685.1.194.355.241.575.266l1.589.165c-1.133,3.4-2.173,6.915-4.176,9.785a15.635,15.635,0,0,1-5.085,4.611,16.273,16.273,0,0,1-1.7.841q-3.221.247-6.319.528-1.186.108-2.354.22c-.647.059-1.285.123-1.919.182q-.006-.349,0-.7a26.758,26.758,0,0,1,6.446-16.848c.19-.22.385-.435.583-.651a26.116,26.116,0,0,1,7.105-5.368,26.483,26.483,0,0,1,13.6-2.95Z" transform="translate(-408.631 -440.708)"/><path class="c" d="M573.586,651.874l-.486,1.437-.245.731c-.647.059-1.285.123-1.919.182l-.114.013-2.1.216c-.182-.211-.364-.427-.541-.647a26.219,26.219,0,0,1,3.411-36.82,15.326,15.326,0,0,0,1.162,8.5c-.114.046-.224.093-.33.144a6.946,6.946,0,0,0-2.164,1.594c-.173.19-.347.457-.228.685.1.194.355.241.575.266l1.589.165c.423.047.845.089,1.268.135l.6.063c.03.063.055.123.085.186a51.344,51.344,0,0,1,3.234,7.959,18.469,18.469,0,0,1,.431,2.075,15.894,15.894,0,0,1-4.227,13.12Z" transform="translate(-396.653 -426.111)"/><path class="f" d="M570.5,519.8a46.827,46.827,0,0,0-15.906-17.458,48.286,48.286,0,0,0-22.217-7.769q-1.56-.142-3.127-.166c-1.235-.018-19.809,5.339-26.032,9.714a48.31,48.31,0,0,0-14.935,16.707,43.325,43.325,0,0,0-5.125,21.825,48,48,0,0,0,6.215,21.758,46.7,46.7,0,0,0,15.4,16.377c6.483,4.137,13,15.1,20.65,15.492,7.712.39,16.508-9.956,23.541-13.1A44.139,44.139,0,0,0,566.6,568.812a46.6,46.6,0,0,0,8.284-20.689,47.858,47.858,0,0,0-2.029-22.832A47.271,47.271,0,0,0,570.5,519.8a3.192,3.192,0,0,0-4.337-1.137A3.246,3.246,0,0,0,565.021,523q.663,1.305,1.232,2.653l-.32-.757a42.753,42.753,0,0,1,2.907,10.794l-.113-.843a46.172,46.172,0,0,1-.028,12.124l.113-.843a46.383,46.383,0,0,1-3.193,11.7l.32-.757a44.056,44.056,0,0,1-2.82,5.536q-.813,1.346-1.725,2.63c-.267.375-.542.744-.82,1.112-.362.48.493-.627.119-.156l-.191.241q-.288.36-.584.713a39.56,39.56,0,0,1-4.3,4.389q-.577.5-1.174.985c-.2.16-.394.327-.6.475.008-.006.668-.507.277-.216-.123.091-.245.184-.368.276q-1.23.911-2.525,1.73a43.744,43.744,0,0,1-6.237,3.26l.757-.32a46.161,46.161,0,0,1-11.665,3.192l.843-.113a45.709,45.709,0,0,1-12.084.021l.843.113a42.2,42.2,0,0,1-10.607-2.868l.757.32a39.578,39.578,0,0,1-5.671-2.955q-1.342-.845-2.614-1.8c-.121-.09-.241-.182-.361-.273-.387-.292.278.215.283.219a8.1,8.1,0,0,1-.649-.518q-.614-.5-1.209-1.024a43.106,43.106,0,0,1-4.435-4.527q-.513-.606-1-1.23c-.142-.18-.4-.545.171.224-.075-.1-.153-.2-.229-.3q-.273-.362-.539-.73-.931-1.288-1.77-2.64a46.194,46.194,0,0,1-3.3-6.386l.32.757a45.054,45.054,0,0,1-3.1-11.343l.113.843a41.366,41.366,0,0,1-.02-10.836l-.113.843a40.015,40.015,0,0,1,2.787-10.127l-.32.757a42.925,42.925,0,0,1,3.041-5.857q.873-1.4,1.85-2.741.222-.3.449-.6c.137-.181.514-.631-.129.164.063-.078.124-.158.186-.237q.536-.68,1.1-1.338a45.384,45.384,0,0,1,4.6-4.658q.623-.546,1.266-1.069.292-.238.588-.47c.079-.062.159-.123.237-.185-.844.672-.235.183-.043.039q1.325-.993,2.72-1.886a43.81,43.81,0,0,1,6.5-3.427l-.757.32c3.28-1.377,17.812-4.628,20.455-4.273l-.843-.113a44.9,44.9,0,0,1,11.294,3.12l-.757-.32a46.627,46.627,0,0,1,5.326,2.675q1.286.754,2.522,1.59.585.4,1.157.809.286.207.569.418l.313.236c.439.329-.605-.477-.145-.113a46.845,46.845,0,0,1,4.382,3.911q1.015,1.033,1.96,2.132.485.564.949,1.144c.154.192.678.888.036.036.157.208.316.415.471.625A41.41,41.41,0,0,1,565.021,523a3.193,3.193,0,0,0,4.337,1.137A3.245,3.245,0,0,0,570.5,519.8Z" transform="translate(-351.023 -355.346)"/><path class="f" d="M550.252,598.358a1.6,1.6,0,0,1-1.158-2.769l.109-.435-.044-.1c-1.471-3.507-10.857,6.27-11.262,9.566a12.693,12.693,0,0,0,.223,4.365,50.888,50.888,0,0,1-4.629-21.135,49.118,49.118,0,0,1,.3-5.479q.252-2.237.7-4.443A51.478,51.478,0,0,1,544.7,556.106c2.905.162,5.452-.28,5.7-5.911.044-1,.787-1.869.95-2.856-.277.036-.559.059-.837.077l-.264.014h-.033a1.583,1.583,0,0,1-1.3-2.579l.359-.442c.182-.227.368-.45.55-.677a.786.786,0,0,0,.059-.068c.209-.259.418-.514.628-.773a4.577,4.577,0,0,0-1.5-1.451,5.276,5.276,0,0,0-6.5,1.519,8.272,8.272,0,0,0-1.278,6.925,18.345,18.345,0,0,0,2.537,5.657c-.114.146-.232.286-.346.432a51.808,51.808,0,0,0-5.408,8.567c.43-3.356-4.823-15.474-6.855-18.04a4.421,4.421,0,0,0-7.874,2.171l-.012.113q.453.255.886.542a2.167,2.167,0,0,1-.874,3.944l-.044.007c-4.039,5.767,8.909,20.777,12.15,17.407a52.882,52.882,0,0,0-2.846,13.4,50.157,50.157,0,0,0,.036,8.1l-.014-.1c-.72-5.868-13.074-14.592-16.682-13.865-2.078.419-4.125.323-3.81,2.42l.015.1a14.567,14.567,0,0,1,1.632.787q.453.255.886.542a2.167,2.167,0,0,1-.874,3.944l-.044.007-.091.014c-1.839,6.326,11.8,16.535,20.085,13.287h0a52.871,52.871,0,0,0,3.551,10.368h12.687c.046-.141.086-.286.127-.427a14.414,14.414,0,0,1-3.51-.209c.941-1.155,1.883-2.319,2.824-3.474a.8.8,0,0,0,.059-.068c.477-.591.959-1.178,1.437-1.769h0a21.112,21.112,0,0,0-.619-5.379Zm-14.528-28.579.007-.009-.007.018Zm-2.81,25.332-.109-.246c0-.177,0-.355,0-.537,0-.05-.009-.1-.009-.15.041.314.077.628.123.941Z" transform="translate(-367.694 -382.166)"/><circle class="f" cx="4.649" cy="4.649" r="4.649" transform="translate(35.61 180.585)"/><circle class="f" cx="4.649" cy="4.649" r="4.649" transform="translate(91.259 231.216)"/><circle class="f" cx="4.649" cy="4.649" r="4.649" transform="translate(302.606 231.216)"/><circle class="f" cx="4.649" cy="4.649" r="4.649" transform="translate(314.019 172.147)"/><circle class="f" cx="4.649" cy="4.649" r="4.649" transform="translate(300.493 129.11)"/><path class="f" d="M421.541,577.089a4.628,4.628,0,1,1-.089-.913A4.628,4.628,0,0,1,421.541,577.089Z" transform="translate(-310.01 -400.293)"/><circle class="f" cx="4.649" cy="4.649" r="4.649" transform="translate(199.716 142.612)"/><path class="f" d="M532.541,507.089a4.628,4.628,0,1,1-.089-.913,4.628,4.628,0,0,1,.089.913Z" transform="translate(-374.167 -359.828)"/><path class="f" d="M390.541,475.089a4.628,4.628,0,1,1-.089-.913A4.628,4.628,0,0,1,390.541,475.089Z" transform="translate(-292.092 -341.33)"/><circle class="f" cx="4.649" cy="4.649" r="4.649" transform="translate(248.248 182.273)"/><circle class="f" cx="6.763" cy="6.763" r="6.763" transform="translate(173.126 135.856)"/><path class="h" d="M532.432,733.892l-362,.13a.5.5,0,0,1,0-1.007l362-.13a.5.5,0,0,1,0,1.007Z" transform="translate(-169.934 -493.022)"/></svg>