<svg xmlns="http://www.w3.org/2000/svg" width="24" height="24" viewBox="0 0 24 24"><defs><style>.a{fill:rgba(255,255,255,0);}.b{fill:none;stroke:#13101e;stroke-linecap:round;stroke-linejoin:round;stroke-width:2px;}</style></defs><g transform="translate(-26 -24)"><rect class="a" width="24" height="24" transform="translate(26 24)"/><g transform="translate(28 27)"><path class="b" d="M0,3.2A4.969,4.969,0,0,1,.218,1.092,2,2,0,0,1,1.092.218,4.969,4.969,0,0,1,3.2,0h.4C5.84,0,6.96,0,7.816.436A4,4,0,0,1,9.564,2.184C10,3.04,10,4.16,10,6.4V18l-.1-.15a8.766,8.766,0,0,0-1.5-1.94,4,4,0,0,0-1.378-.737A8.766,8.766,0,0,0,4.575,15H3.2a4.969,4.969,0,0,1-2.108-.218,2,2,0,0,1-.874-.874A4.969,4.969,0,0,1,0,11.8Z"/><path class="b" d="M20,11.8a4.969,4.969,0,0,1-.218,2.108,2,2,0,0,1-.874.874A4.969,4.969,0,0,1,16.8,15H15.425a8.766,8.766,0,0,0-2.447.173,4,4,0,0,0-1.378.737,8.766,8.766,0,0,0-1.5,1.94L10,18V6.4c0-2.24,0-3.36.436-4.216A4,4,0,0,1,12.184.436C13.04,0,14.16,0,16.4,0h.4a4.969,4.969,0,0,1,2.108.218,2,2,0,0,1,.874.874A4.969,4.969,0,0,1,20,3.2Z"/></g></g></svg>