<svg xmlns="http://www.w3.org/2000/svg" width="24" height="24" viewBox="0 0 24 24"><defs><style>.a,.b{fill:none;}.b{stroke:#13101e;stroke-linecap:round;stroke-linejoin:round;stroke-width:2px;}</style></defs><path class="a" d="M0,0H24V24H0Z"/><path class="b" d="M0,0H6" transform="translate(8 9)"/><path class="b" d="M0,0H6" transform="translate(8 12)"/><path class="b" d="M0,0H3" transform="translate(8 15)"/><path class="b" d="M10.941,16.5H.75A.75.75,0,0,1,0,15.75V.75A.75.75,0,0,1,.75,0h15a.75.75,0,0,1,.75.75V10.941a.741.741,0,0,1-.216.525l-4.819,4.819a.741.741,0,0,1-.525.216Z" transform="translate(3.75 3.75)"/><path class="b" d="M0,5.184V0H5.184" transform="translate(15 15)"/></svg>